<svg xmlns="http://www.w3.org/2000/svg" viewBox="0 0 795.5 720" class="TridactylThemeShydactyl">
<style>.st0{stroke-width:12;stroke-linecap:round}.st0,.st1,.st2,.st3{fill:none;stroke:#000;stroke-miterlimit:10}.st1{stroke-width:12;stroke-linejoin:round;stroke-linecap:square}.st2,.st3{stroke-linecap:round}.st2{stroke-linejoin:round;stroke-width:12}.st3{stroke-width:5}.st4{fill:#1e1e1e}.st5{stroke-width:4.1568;stroke-linecap:round}.st5,.st6,.st7,.st8{fill:none;stroke:#1e1e1e;stroke-miterlimit:10}.st6{stroke-width:4.1568;stroke-linejoin:round;stroke-linecap:square}.st7,.st8{stroke-linecap:round}.st7{stroke-linejoin:round;stroke-width:4.1568}.st8{stroke-width:1.732}.st9{display:none}.st10{display:inline}
</style>
<g id="Logo"><path class="st4" d="M606.2 727.9c3.3-1.6 6.6-3.4 9.8-5.3 3.2-1.9 6.2-4 9.2-6.2 3-2.2 5.8-4.5 8.6-7 2.7-2.4 5.3-5.1 7.4-7.9 1.1-1.4 1.9-2.9 2.6-4.6.7-1.5 1.1-3.3 1.6-5.1l1.2-5.4 1.2-5.4 1.1-5.4c.4-1.8.6-3.6 1.1-5.6.3-1 .6-2 1-3 .4-.9.9-1.9 1.3-2.7.8-1.6 1.6-3.3 2.3-4.9.3-.8.6-1.6.9-2.5l.4-1.3c.1-.4.3-.8.4-1.2.2-.8.4-1.7.6-2.5l.1-.6.1-.3v-.1.1-.2l.1-1.4c.4-3.2-.4-6.6-1.4-10-1-3.4-2.4-6.7-3.9-10s-3.3-6.4-5.3-9.4-4.2-6-6.2-9.4c-2-3.3-3.7-6.8-5.1-10.4-2.8-7.2-4.4-14.7-5.2-22.3l4.5.5c-4.3 13.2-9.8 26.1-16.4 38.4-3.3 6.1-6.9 12.1-10.7 17.9-3.8 5.8-7.7 11.5-12 17s-8.9 10.8-13.9 15.7c-5 4.9-10.3 9.5-15.9 13.7l-4.3 3c-1.4 1-2.9 1.9-4.4 2.9-2.9 1.9-5.9 3.7-8.9 5.4-6 3.5-12.4 6.6-19.2 8.7-3.4 1.1-6.9 1.8-10.4 2.3-3.5.5-7.1.7-10.6.5-1.8-.1-3.6-.3-5.4-.6-1.8-.3-3.5-.8-5.2-1.2-1.7-.5-3.3-.9-4.9-1.3-1.6-.3-3.3-.6-5-.8-6.7-.8-13.5-.8-20.3-.3-6.8.6-13.5 1.7-20.1 3.4-1.6.4-3.3.9-4.9 1.4-1.6.5-3.2 1-4.9 1.6-3.2 1.1-6.4 2.4-9.4 3.8-6.1 3-11.9 6.7-17.8 10.2-3 1.8-5.9 3.6-8.9 5.3-3 1.7-6.4 3.1-9.8 3.9-3.4.8-6.9 1.2-10.4 1.3-3.5.1-7-.2-10.4-.7-.2 0-.3-.2-.3-.3 0-.2.2-.3.3-.3 6.8.6 13.8.4 20.3-1.5 3.3-.9 6.3-2.3 9.2-4 2.9-1.8 5.8-3.6 8.7-5.5 5.8-3.7 11.6-7.5 17.8-10.7 3.1-1.6 6.4-2.9 9.6-4.1 1.6-.6 3.3-1.2 4.9-1.7 1.7-.6 3.3-1 5-1.5 6.7-1.8 13.6-3 20.6-3.7 7-.6 14-.7 21 .1 1.8.2 3.5.5 5.2.8 1.7.4 3.5.8 5.1 1.3 1.7.4 3.3.9 4.9 1.1 1.6.3 3.3.4 4.9.5 3.4.1 6.7-.1 10-.6s6.6-1.2 9.8-2.2c6.4-2 12.5-5.1 18.3-8.5 2.9-1.7 5.9-3.6 8.7-5.4 1.4-1 2.9-1.9 4.2-2.8l4.1-3c5.4-4.1 10.5-8.6 15.3-13.5 4.8-4.8 9.2-10 13.4-15.4 4.1-5.4 8-11.1 11.7-16.8 3.8-5.7 7.3-11.6 10.5-17.6 6.4-12 11.8-24.7 16-37.7l3.4-10.6 1.1 11.1c.7 7.2 2.3 14.3 4.9 21 1.3 3.3 2.9 6.6 4.7 9.6 1.8 3 4 6 6.1 9.2 2.1 3.2 4 6.5 5.6 10 1.6 3.4 3.1 7 4.2 10.7.6 1.9 1 3.8 1.4 5.7.2 1 .3 2 .3 3V649l-.1.7-.1 1.4v.5l-.1.4-.1.7c-.2 1-.4 2-.7 2.9-.1.5-.3 1-.4 1.4l-.5 1.3c-.3.9-.7 1.8-1 2.7-.8 1.8-1.6 3.5-2.4 5.2-.9 1.7-1.5 3.1-1.9 4.7-.4 1.6-.7 3.5-1.1 5.3-.4 1.8-.9 3.7-1.4 5.5-1.1 3.6-2.2 7.1-3.4 10.7-.6 1.8-1.2 3.6-2.2 5.4-.9 1.7-2 3.4-3.2 4.9-2.5 3-5.3 5.5-8.2 7.9-2.9 2.3-6 4.5-9.1 6.6-6.3 4.1-12.9 7.6-19.7 10.6-.1.1-.2 0-.3-.1.5.4.6.3.7.2z"/><path class="st5" d="M544 420.9c21.2-13.3 33.3-12.8 40.5-9.7 6.7 2.9 10.9 8.5 22.3 10.8 5.7 1.2 8.5.5 14 3 6.3 2.9 10.1 7.2 11.6 9 5.4 6.8 6.4 13.9 7.3 20.6.4 2.9 1.5 13.5-2.1 29.1-4.2 17.7-8.9 17.3-8.6 27.8.2 6.9 2.5 15.2 5.3 25.5 1 3.8 2.1 7.3 2.1 12.3 0 4.6-.9 6.8-2 13.3-.5 3.2-1.1 7.9-1.4 13.8"/><path class="st4" d="M631 507.5s-.7 1.5-2 4.4c-1.3 2.9-3.3 7.2-5.9 12.5-2.6 5.3-6.1 11.7-10.3 18.8-4.2 7.1-9.2 15-15.1 23.3s-12.7 17-20.5 25.7c-7.8 8.7-16.4 17.5-25.8 26.1-4.7 4.3-9.6 8.5-14.5 12.8-4.9 4.3-9.9 8.6-15.2 12.7-5.3 4.2-10.8 8.1-16.8 11.6-3 1.7-6.1 3.3-9.2 4.7-1.6.7-3.1 1.4-4.8 2-.8.3-1.6.6-2.5.9-.9.3-1.7.5-2.5.8-6.6 2-13.2 3.5-19.8 5-6.6 1.5-13.1 2.9-19.6 4.2-6.5 1.3-12.9 2.7-19.3 4-6.4 1.3-12.7 2.6-18.8 4-6.1 1.4-11.9 3.1-17.3 5.5-2.7 1.2-5.3 2.5-7.8 3.9-1.2.7-2.5 1.5-3.8 2.2-1.2.8-2.4 1.5-3.6 2.3-4.8 3.1-9.3 6.4-13.5 9.8-4.2 3.4-8.1 6.9-12 10.2-3.8 3.3-7.6 6.4-11.1 9.3-3.6 2.9-7 5.7-10.5 8-1.7 1.2-3.6 2.3-5.5 3-.9.3-1.8.6-2.8.9-.9.3-1.8.5-2.7.7-3.6.8-6.9 1.1-9.9 1.2-6 .1-10.6-.8-13.7-1.5-1.6-.3-2.7-.7-3.5-.9l-1.2-.3s.4.1 1.2.2c.8.1 2 .3 3.6.5 3.1.3 7.7.8 13.5.3 2.9-.3 6.1-.8 9.4-1.7.8-.2 1.7-.5 2.5-.8.8-.3 1.7-.6 2.6-1 1.6-.7 3.2-1.7 4.8-2.9 6.4-4.9 13.2-11.2 20.8-17.9 1.9-1.7 3.8-3.4 5.8-5.1 2-1.7 4-3.6 6.1-5.3 4.3-3.5 8.9-6.9 13.7-10.1 1.2-.8 2.5-1.6 3.7-2.4 1.3-.8 2.5-1.5 3.8-2.3 2.7-1.5 5.4-2.9 8.2-4.2 5.7-2.6 11.9-4.4 18.1-5.9 6.2-1.5 12.5-2.7 18.9-4.1 6.4-1.4 12.8-2.7 19.3-4.1 6.5-1.4 13-2.8 19.5-4.3s13.1-3.1 19.3-5c.8-.3 1.6-.5 2.3-.8.7-.3 1.5-.5 2.3-.8 1.5-.6 3-1.3 4.5-2 3-1.4 5.9-2.9 8.7-4.5 5.7-3.3 11-7.1 16.2-11.1 5.2-4.1 10.1-8.3 15-12.6 4.9-4.3 9.8-8.5 14.4-12.7 9.3-8.5 17.8-17.1 25.4-25.7 3.8-4.3 7.5-8.5 10.9-12.7 3.4-4.2 6.5-8.4 9.5-12.4 11.8-16.2 20-30.9 25.4-41.3 2.7-5.2 4.7-9.3 6-12.2 1.3-2.9 2-4.4 2-4.4.5-1 1.7-1.5 2.8-1 1.3.2 1.7 1.5 1.3 2.5z"/><path class="st4" d="M584.8 410.3s.2.4.7 1.1c.5.7 1.2 1.9 2 3.3 1.7 2.9 4.1 7.3 6.6 13.2 2.5 5.8 5.1 13.2 6.8 21.8 1.9 8.7 2.7 18.7 2.3 29.6-.5 10.9-2.3 22.6-5.9 34.5-1.8 5.9-3.9 12-6.5 17.9-2.6 6-5.5 11.9-8.9 17.8-6.7 11.8-14.9 23.2-24.3 33.7-9.5 10.6-20.4 20.2-32.3 28.3-11.8 8.2-24.4 15.4-37.6 20.6-6.6 2.6-13.4 4.7-20.3 6.1l-2.6.5c-.9.2-1.7.3-2.6.4-1.7.2-3.5.4-5.2.7-3.5.2-6.9.4-10.2.5-13.3.3-26.2 1-38.4 2-6.1.5-12 1-17.7 1.7-2.8.3-5.6.8-8.2 1.4-.6.2-1.3.3-1.9.5-.6.2-1.2.4-1.8.7-1.2.5-2.4 1.1-3.6 1.7-4.7 2.3-8.9 5.1-12.8 7.9-3.9 2.8-7.3 5.9-10.3 8.8-1.5 1.6-3 3-4.2 4.5-.7.8-1.3 1.5-1.9 2.2-.6.7-1.2 1.5-1.8 2.2-.6.7-1.2 1.5-1.6 2.1-.5.7-1 1.5-1.5 2.2-1 1.4-1.9 2.8-2.8 4-3.3 5.1-5.8 9.4-7.3 12.4l-2.3 4.6c0 .1-.2.1-.3.1-.1 0-.1-.2-.1-.3 0 0 .2-.4.5-1.2.3-.8.8-2 1.4-3.6 1.3-3.1 3.3-7.6 6.5-13.1.8-1.3 1.7-2.7 2.6-4.2.5-.7.9-1.5 1.4-2.2.5-.8 1.1-1.5 1.6-2.3.6-.8 1.1-1.6 1.7-2.4.6-.8 1.3-1.6 1.9-2.4 1.3-1.6 2.8-3.1 4.2-4.8 6.1-6.3 14-12.7 23.7-17.6 1.2-.6 2.5-1.2 3.8-1.8.6-.3 1.4-.6 2.1-.8l2.1-.6c2.8-.7 5.7-1.2 8.6-1.5 5.8-.7 11.7-1.2 17.8-1.8 12.2-1.1 25.2-1.9 38.6-2.3 3.4 0 6.6-.3 9.9-.5 1.6-.2 3.3-.4 5-.7.8-.1 1.7-.2 2.5-.4l2.5-.5c6.6-1.4 13.2-3.4 19.6-6 12.8-5.2 25.1-12.3 36.7-20.4 11.6-8 22.2-17.4 31.5-27.7 9.2-10.3 17.2-21.5 23.7-33 3.2-5.8 6.1-11.6 8.6-17.4 2.5-5.8 4.6-11.7 6.3-17.5 3.5-11.6 5.3-22.9 5.8-33.4.4-10.5-.4-20.2-2.1-28.4-1.7-8.4-4.1-15.4-6.5-21.1-2.4-5.6-4.7-9.9-6.3-12.7-.8-1.4-1.5-2.5-1.9-3.2-.5-.7-.7-1.1-.7-1.1-.6-1-.3-2.3.7-2.9s2.1-.2 2.7.8z"/><path class="st5" d="M436.6 638.5c4-5.2 10.6-13 19.7-21.3 12-10.9 14.9-10.4 26.8-20.6 13.9-12.1 12.3-15.3 28.7-30.3 13.5-12.4 15.3-10.7 19.9-17.1 9.3-13.1 12.2-34.3 4.3-49.7-13.3-26.1-53.8-28.5-74-26.4-18.6 1.9-21 7.9-64.4 16.9-19 4-27.1 4.6-36.4 1.9-14.5-4.2-18.5-12.7-33.1-17.3-13.3-4.3-26.1-2.4-35.6.2-3.7-1.9-9.1-4-15-2.8-8.8 1.7-11.9 9.3-18.5 15.4-10.9 10-29.3 14.4-42.2 10.6-20.4-6-21-30.8-41.6-35.3-8.5-1.8-16.2.7-21.1 2.8"/><path class="st5" d="M449.3 475.5c3.1-5.4 8.5-12.9 17.6-17.2 15.2-7.2 28.2.6 34.7-7.5 4-4.9 0-9.2 6-23.3 1.3-3.1 2.2-4.5 2.3-7.1.2-7.7-7.3-13.6-10.9-16.4-2.9-2.3-17.2-13.6-33.7-9.9-11 2.4-9.2 9-22.8 14.4-15 5.9-22.3.2-30.5 7.7-5.9 5.4-4.4 10.5-11.2 14.8-5.6 3.5-9.3 2.1-16.9 3.2-12.1 1.7-25.1 9.9-30.3 21.6-.9 2.1-5.7 14.1 1.1 25.5 5.4 9.1 14.7 11.8 16.9 12.4"/><path class="st5" d="M491.5 398.8c5.3 1.7 13 4.3 22.3 7.5 16.9 5.9 19.2 7.2 20.4 7.9 13 7.9 16.9 23.8 19.4 33.7 9.7 39.4-11.9 82.9-17.1 92.9M392 433.2c-3.6-1.1-9-2.4-15.7-2.6-7.4-.2-10.3 1.5-19.6 2.4-22.1 2.2-24-.2-29.6 3.3-7.5 4.8-6.1 10.5-13.9 14.3-4.8 2.3-7.7 1.4-17.7 1.2-16.6-.3-29.8-.6-38.2 6.9-2.2 1.9-5.3 5.5-7.2 12.1-.4 1.4-4.2 12.6-15.7 16.6-7.6 2.7-14.2.7-16.4 0-2.3-3.7-6.1-8.8-11.9-13.9-6.5-5.8-16.6-14.7-30.2-15.1-3.4-.1-11.7.3-21.3 6.7"/><path class="st5" d="M319 446c-.9 2.7-2.5 6.6-5.4 10.7-2.5 3.4-4.8 5.5-7.4 7.8-3 2.7-7.5 6.1-13.4 9.5M633.4 529.1c9.7-9.8 12.7-18.5 13.6-24.7 1.3-9.6-2.3-13.2-.6-25.6 1.5-11.1 4.9-10.9 5.8-20.6.9-9.9-1.8-17.4-5.5-27.6-4.5-12.2-6.8-18.5-13.1-21.4-6.4-2.9-13.2-.8-16.7.5-1.7 1.7-4.1 3.7-7.2 5.6-3.6 2.2-7 3.5-9.6 4.2"/><path class="st5" d="M617.1 409c1.2-1.7 3-4.4 4.8-7.8 3.7-7 2.8-8.3 5.4-12.3 4.9-7.5 12.7-10.1 14.3-10.6 2.2-.7 5.4-1.7 9.4-1.2 8 1.1 14.1 7.6 16.6 14 2.2 5.7.2 7.9 1.6 14.9 1.5 7.8 5.6 13.6 8.6 17.1 3.1 8.7 6 20.7 4.9 33.6-.7 8.5-2.7 11.6-4.6 13.4-3.8 3.6-7.5 2.4-11.8 6.4-3.2 3-4.2 6.5-5.6 11.4-2.9 10.5-.2 14.1-2.4 19.8-1.6 4.1-5.7 9.4-17.6 13.4"/><path class="st5" d="M678.8 422.3c3-1.1 7.4-3.3 9.9-7.7 2.8-5.1 1.4-10.2-.3-19.5-3.8-19.8-1.2-16.9-4.1-27.1-1-2.9-8.3-23.9-15.8-26.8-.7-.3-2.4-.9-4-.3-2.7 1-3.6 4.8-4.3 8.3-1.1 5.1-.2 6.1-1.1 12.4-.9 6.5-2.2 8.7-2.7 9.4-1.8 2.9-4.3 4.5-6 5.5M397.1 432.7c29.3-7 53.4-.7 58.4 11.4 1.3 3.1 2.7 9.8.7 17.1-2.1 8.1-7.2 13.1-9.3 14.9"/><path class="st5" d="M721.1 274.6c-2 3-5.3 7.1-10.4 10.5-6.9 4.7-10 3.4-19.6 7.9-12.2 5.7-18 12.8-19.6 14.8-3 3.9-6.5 8.4-5.8 13.8.4 3.5 2.3 4.8 2.6 8.4.3 4.7-2.4 8.7-4.8 11.4"/><path class="st5" d="M685.5 371.2c1.6-3.5 4.9-12.3 3.4-23.5-1.7-12.3-8.3-20.3-10.9-23.1-1.2-5.1-1.9-11.8 1.7-16.8 3.6-5 9.7-5.7 14.6-7.2 7.8-2.4 17.7-8.7 27.2-25.4M459.2 473.4c10.7 2.1 26.7 6.9 41.3 18.2 10.4 8.1 14 14.7 15.5 18 1 2.1 3.1 7.2 3.8 16.3 1.2 16.1-3.3 30.3-7.6 39.9M571.1 409.1c-5.3-3.1-7.2-6.3-7.8-8.8-.8-3 .1-4.9-1.2-7.8-1.5-3.4-4.8-5.1-6.8-6.1-23.1-11.6-34.7-17.3-50.1-17.5-3.4 0-1 .2-18.9 1.4-20.2 1.4-20.3.9-26.3 1.7-6.3.8-33 4.4-34.5 14.3-.7 4.1 3.1 9 7 11 4.2 2.1 9.2 1.1 10.1.8 3.2-.7 4.1-2 7.2-2.3 2.9-.2 5.4.7 6.9 1.5"/><path class="st5" d="M440.1 398.7c-3.8 1.1-10.6 2.4-17-.6-14.8-6.9-19.4-32.4-9.5-44.4 9-10.9 27.9-8.1 37.1-6.7 15.4 2.3 15.3 7.8 29.7 8.9 15.6 1.2 19.1-4.9 31.8-.9 9.3 2.9 18.1 9.5 19.2 10.4 6.3 4.8 5.9 6.3 10.9 9.1 8.8 5 14.4 3 18.2 7.7 1.6 2 3.1 5.5 2.1 12"/><path class="st5" d="M416.2 349.7c-.7-2.7-2.8-9.5-9.2-15-.9-.8-6.4-5.3-14.4-6.6-3.6-.5-4.6 0-8.8-.3-6.1-.5-10.8-2.2-13.9-3.6 3.7.2 9.4.2 16.1-1.2 5.8-1.2 8.1-2.6 15.1-4.9 10.7-3.5 16-5.3 21.9-5.3 7.5 0 20.7 2.5 24.3 10.7 1.9 4.3-.3 7 2.6 11.8 3.2 5.1 8.6 6.9 9.5 7.2 5.2 1.6 7.9-.4 12.4-.2 4.2.2 10.3 2.4 17.6 12"/><path class="st6" d="M369.1 323.8c-9.2-2.5-14.6-6.8-17.7-10-14.5-15.3-13.9-44.8 2.6-72.9-2 5.4-4.4 13.6-5.1 23.8-.6 9.2-1.5 23.7 5.9 35 13.4 20.4 45.5 17.8 47.2 17.7"/><path class="st7" d="M622.3 400.8c-5.4-10.9-11.9-18.1-16.5-22.6-4.8-4.6-18.9-18.2-27.5-14.3-3 1.4-2.3 3.5-9.8 10-4.3 3.7-7 5.2-10.2 5.3-2.3.1-4.2-.6-5.4-1.1"/><path class="st7" d="M616.8 391.4c-1.4-9.1-4.7-20-13.3-28.2-8.8-8.5-15.3-6.5-27.9-16.4-8.3-6.5-18.9-14.1-20-26.1-1.2-12.5 8.4-22.4 11.5-25.3-5 2.1-13.6 6.8-18.7 16-9.5 17.3.1 37.8 3.8 43.9.2.3.3.5.4.6 4.9 7.8 11.6 12.8 17.2 15.9M566.8 295.4c2.4-2.7 6.2-6.7 11.2-11.2 3.8-3.3 5.2-4.2 6.9-5.9 3.4-3.4 7.2-9.3 8.3-20.2"/><path class="st7" d="M593.6 258.5c5.8 9.3 4.6 15.8 4 18-.9 3.5-2.9 6.3-6.9 11.9-3.8 5.4-4.5 5.1-7.2 9.3-2.6 4-5.3 8.2-6 13.8-.6 5.5 1 7.2 1.2 12.4.2 4.4-.8 10.8-6.4 18.9"/><path class="st5" d="M486.3 483.1c-1.4 0-3.6.3-6.1 1.3-.4.2-2 .8-3.3 1.9-3 2.3-4.7 6.3-4.8 9.3-.2 5.6 5.3 6.3 10.3 15.5 3.2 5.9 4.7 11.8 5.7 16.1 2.2 8.9 1.1 10.6 3.4 15.9 2.8 6.6 7.1 10 8.9 11.4 5 4 10.6 4.8 13.6 5.1M388.4 549.2c5.8-3.3 4.4-7.4 10.5-12.9 5.9-5.4 15.5-8.8 25.2-7.3 10.6 1.6 22.2 11 22.7 21.8.5 10.1-8.8 18.3-16 24.6-3.2 2.8-6.2 4.8-8.1 5.9-2.3 1.4-8.7 5-19.1 7.3-6.1 1.3-23.5 5.1-43.8-2-8.3-2.9-21.8-7.6-22.5-16-.5-6.6 7.1-12.8 11.8-15.4 5.3-3 10.2-3.6 17.6-4.3 13.3-1.4 16.2 1.4 21.7-1.7z"/><path class="st5" d="M474.1 488.1c-6.3-.8-15.7-1-25.6 3.1-10.5 4.3-16.6 11.2-22.1 17.5-6.7 7.6-10.8 15-13.3 20.2M489.5 534.3c-.2-.5-4.5-9.9-13.6-10.9-7.1-.8-12.3 4.2-13.3 5.2-5.3 5.1-4.2 10.1-8.7 19.2-1.8 3.8-4.9 8.9-10.3 14.3M356.6 552c-3.7-3-10.5-7.7-20-8.9-7.7-1-13.7.8-21.9 3.2-13.6 3.9-13.4 6.9-23.7 9.2-13.6 3-16.1-1.7-24.4 2.1-9.1 4.2-16.2 14.7-16.5 26-.3 8.1 3 14.2 4.7 16.9"/><path class="st5" d="M337.4 573.7c-2.4.5-6.2.8-9.7-1.1-6.3-3.4-5.2-10.8-9.4-12.3-5.9-2.1-10.2 11-22.5 13.3-8.9 1.6-11.8-4.3-22.6-2.1-2.7.5-8.8 1.9-13.6 7-7.6 8.3-5.5 20.1-5.2 21.8"/><path class="st5" d="M305.3 549.8c-5.7 4-9.5 7.9-11.9 10.9-1.9 2.4-3.3 4.5-6.3 6.6-3.5 2.4-7.1 3.3-9.7 3.6"/><path class="st8" d="M473.3 499c-2.7-.5-7.2-1-10.7.7-3 1.5-3.5 5.2-4.4 13.5-1.5 13.1-.9 16.2-1.8 21.5-.9 4.8-3 11.7-9.1 19.6"/><path class="st4" d="M632.2 585.8s0 .8.1 2.4c.1 1.5.2 3.8.2 6.7 0 5.8-.3 14-2 23.7-.9 4.9-2 10.1-3.5 15.5-1.4 5.5-3.2 11.1-5.4 16.9-2.2 5.7-4.8 11.6-8 17.2-1.6 2.8-3.3 5.6-5.2 8.3-1.9 2.7-3.8 5.3-6 7.8-4.2 5-9.1 9.5-14.4 13.3-5.3 3.8-11 6.8-16.8 8.9-1.5.5-2.9 1-4.3 1.5-1.5.4-2.9.8-4.4 1.2-2.9.6-5.7 1.2-8.6 1.5-5.6.6-11 .7-15.9.3-4.9-.4-9.4-1.1-13.3-2-3.9-.9-7.3-1.8-10-2.7-2.7-.9-4.8-1.7-6.3-2.2-1.4-.6-2.2-.9-2.2-.9-.1 0-.1-.1-.1-.2s.1-.1.2-.1c0 0 .8.3 2.2.9 1.4.5 3.5 1.3 6.3 2.2 2.7.9 6.1 1.8 10 2.6 3.9.8 8.3 1.5 13.2 1.9 4.9.4 10.2.3 15.7-.4 5.6-.7 11.3-1.9 17-4.2 5.7-2.1 11.3-5.1 16.5-8.9 5.2-3.8 10-8.2 14.1-13.2 2.1-2.5 4-5.1 5.9-7.8 1.8-2.7 3.5-5.4 5-8.2 3.1-5.6 5.7-11.4 7.8-17.1 2.1-5.7 3.9-11.4 5.3-16.8s2.5-10.6 3.3-15.4c1.6-9.6 1.9-17.8 1.9-23.5 0-2.8-.1-5.1-.2-6.6s-.1-2.3-.1-2.3c0-.5.3-.9.8-.9.7-.3 1.2.1 1.2.6z"/><path class="st8" d="M633.9 534.7c-3.3 17.4-11.2 47.1-32.6 77.4-23.8 33.7-51.8 50.6-67.3 59.7-32.5 19.1-63.3 26.8-84.2 30M632.1 589.6c4.3 10.6 8.5 23 12 37.1 4.2 17 6.2 32.5 7.1 45.7M586.1 412.2c7.8 10.2 23.2 33.1 27.3 66.2 5.4 43.4-12.1 76-18.3 86.5M412 640.7c-4.5 1.8-10.9 4.8-17.2 10.3-7.6 6.5-10.8 13-17.1 23.8-4.2 7.3-10.5 17.8-18.8 30.5M561.4 414.1c5.5 13.1 12.4 34.1 13.3 60.6.5 13.6 1.3 55.7-25.3 95.3-37.4 55.8-101.1 64.9-111.6 66.3M635.7 411.2c3.3 6.8 7.9 18.6 8.7 33.9.7 13.6-1.9 24.6-4.2 31.5"/><path class="st8" d="M629.2 387.3c1.1-.7 8.2-5.1 16.6-2.5.9.3 7.1 2.2 10.9 8.3 4.3 6.9 1.8 13.2 1.4 23.8-.5 13.3 3 11.8 5.1 33.5 2.6 26.8-2.4 33.5-4.1 35.5-3.7 4.3-8.4 6.4-11.8 7.4M667.9 340.9c-1.4 4.2-3 10.4-2.1 17.7 1.5 12.4 8.8 17.8 13 28.1 2.9 7.3 4.8 18.6-.5 35.3M675.7 324.3c-.8-.3-4.1-1.7-5.7-5.2-1.6-3.5-1.1-7.7 1.3-11M519.3 522.2c1.5-3.2 5-11.7 2.6-21.8-3-12.5-14-22.4-28.1-25.5M502.9 450.3c3.6 1.5 33.6 14.2 40.8 44.9 3 13 .9 24.1-1 30.7M478.1 394.2c-3.7.2-7.7 1.2-10.7 4.2-5.6 5.5-2.8 13.4-6.6 24.9-2.2 6.7-5.6 11.6-8 14.5M457.5 454.3c1.7-3.7 4.6-8.7 9.5-13 14.4-12.6 33.8-8.9 36.7-8.3M510.8 420.5c5 .6 14.7 2.4 24.2 9.5 15.3 11.2 19 27.6 19.9 31.9M454.2 444.1c-1.4.8-3.5 2.3-5.5 4.5-3.4 3.7-4.6 7.5-5 8.5-3.7 9.7-25.3 16.5-31 18.4-15.5 4.9-35.3 11.3-43.1 2.8-2.8-3-3.7-7.6-9.7-11.6-3.2-2.2-6.4-3.2-8.5-3.6M356.7 448.5c-9.9-5.7-16.6-5.7-21.2-3.9-7 2.7-8.3 9.2-16.2 16.4-6.9 6.3-14.8 9.6-21.7 11.3M369.7 439.8c3.8 2.1 12.6 6.2 24.2 5.5 16.8-1.1 27.3-11.7 29.8-14.3M497.5 370.3c-11.1 2.2-18.6 6.1-18.7 10-.1 4.7 10.3 8.6 15.2 10.4 17.7 6.5 26.2 1.8 38.8 6.9 5.6 2.3 13.2 7 20.4 18M417.5 349.2c9.9 1.7 18.5 3.5 25.5 5.2 15.3 3.6 21.9 6 24.9 12 1 2 1.4 3.9 1.6 5.2M217.9 488.4c2.4 2.1 6.5 5.2 12.2 6.5 12.8 2.8 23.6-5.3 25.6-6.9 11.4-8.9 8.5-18.7 19.4-27.7 6.7-5.5 14.5-7.2 20.1-7.9"/><path class="st8" d="M486.1 520.6c3.2 6.9 9.8 10.9 15.9 10 6.6-.9 10-7.1 10.7-8.3 4.4-8 .8-16.3.3-17.3M429.6 530.7c-3.7 2-8.7 5.3-12.8 10.7-8.9 11.7-4.3 20.6-11.4 28.8-8.5 9.7-25.4 9-35 6.6-15.3-3.9-23.5-15.1-25.6-18.4M442.4 540.7c-1.1 3.9-2.8 9.3-5.5 15.6-1.7 3.8-3.9 8.7-8 14.5-3.5 5.1-7.1 8.9-9.8 11.5M313.1 561.1c.6-1.2 3.2-5.8 8.1-7 6.2-1.6 13.8 2.5 17.2 10.5M564 377.8c1-.9 5.6-4.4 11.4-3.6 5.1.7 8.2 4.3 9.9 6.2 5.6 6.7 3.7 12.4 7.3 20.8 1.7 4.1 5.1 9.6 12.5 15.1M577.5 362.7c-2.4-.4-16.3-2.7-25.5-15.6-9.5-13.4-6.7-27.8-6.2-30.1M580.6 305c-2.8 1.3-10.4 5.2-15.1 14-2.8 5.2-3.5 10-3.6 13M379.1 325.4c11.6-1.1 24.6-2.1 38.8-2.8 7.4-.4 14.4-.6 21.5 3.5 5.5 3.1 8.8 7.6 10.6 10.6M349.3 275c-1.1 4.1-3.2 13.9.5 25.4 4.7 15 15.9 22.6 19.2 24.7"/><path class="st4" d="M632 581.3s.3.8.7 2.3c.5 1.5 1.2 3.7 1.9 6.5.8 2.8 1.6 6.3 2.4 10.3.8 4 1.5 8.6 2 13.6s.7 10.4.7 16.2c-.1 5.8-.6 11.8-1.6 18-.3 1.5-.5 3.1-.8 4.7-.3 1.6-.7 3.1-1 4.7-.7 3.2-1.5 6.3-2.3 9.5-1.7 6.4-3.8 12.8-6.6 18.8-1.4 3.1-3 6-4.7 8.9-1.8 2.8-3.7 5.6-5.9 8.1-.5.6-1.1 1.3-1.6 1.9l-1.7 1.8c-1.1 1.2-2.3 2.3-3.5 3.4l-.9.8c-.3.3-.6.5-1 .8-.6.5-1.2 1-1.9 1.5-1.3 1-2.4 2-3.8 2.8-1.3.9-2.6 1.7-3.9 2.6-1.3.8-2.7 1.5-4 2.2-.7.4-1.3.7-2 1.1-.7.3-1.4.6-2 .9-1.4.6-2.7 1.2-4 1.7-2.7.9-5.4 1.9-8 2.5-2.6.8-5.2 1.2-7.6 1.7-1.2.2-2.5.4-3.6.5-.6.1-1.2.2-1.8.2-.6.1-1.2.1-1.7.2l-3.3.3c-1.1 0-2.1.1-3.1.1-1 .1-2 .1-3 .1h-2.7c-1.8-.1-3.4-.1-4.8-.3-2.9-.2-5.2-.5-6.7-.7-1.5-.2-2.4-.4-2.4-.4l2.4.3c1.5.2 3.8.4 6.7.5 1.5.1 3.1.1 4.8.1h2.7c.9 0 1.9 0 2.9-.1s2.1-.1 3.1-.2l3.3-.3c.6-.1 1.1-.1 1.7-.2.6-.1 1.2-.2 1.7-.3l3.6-.6c4.9-1 10.1-2.3 15.4-4.4 1.3-.5 2.6-1.1 4-1.7.7-.3 1.3-.6 2-.9.6-.4 1.3-.7 2-1.1 1.3-.7 2.7-1.4 4-2.2 1.3-.8 2.5-1.7 3.8-2.5 1.3-.8 2.5-1.9 3.7-2.8.6-.5 1.2-1 1.9-1.5.3-.2.6-.5.9-.7l.9-.8c1.2-1.1 2.4-2.2 3.4-3.4l1.7-1.8c.5-.6 1-1.2 1.6-1.9 2.1-2.5 3.9-5.2 5.7-8 1.7-2.8 3.3-5.7 4.6-8.8 2.8-6 4.8-12.4 6.4-18.7.8-3.2 1.6-6.3 2.3-9.5.3-1.6.7-3.1 1-4.7.3-1.6.5-3.1.7-4.6.9-6.1 1.4-12.1 1.4-17.8 0-5.7-.2-11.1-.7-16-.5-4.9-1.2-9.4-2-13.4s-1.6-7.4-2.4-10.2c-.8-2.8-1.4-5-1.9-6.4-.5-1.5-.7-2.3-.7-2.3-.1-.5.1-.9.6-1.1s.9.3 1 .7z"/><path class="st8" d="M439.3 432.3c-3.5 3.2-8.6 8.3-14.5 14.9-9.1 10.2-8.4 11.2-12.8 14.9-13.6 11.3-30.9 10.2-32.9 10-8.5-.7-15.2-3.6-19.4-5.9M376.1 550.8c-.4 1.5-1.4 6.4 1.4 10.4 4.2 6.1 13.6 4.7 15.9 4.4 10.4-1.5 16.2-10 17.6-12M439.3 498.4c.1 3 .1 10.3-4.3 18-3.7 6.5-8.6 10-11.2 11.7M486.1 518.2c4.5.2 6.8-1.2 8-2.1 5.7-4.5 5.9-16.9-1.4-29.8M490 527.9c.4 2.2 2.1 10.4 9.7 16.6 6.6 5.4 13.7 6.1 16.1 6.2M485.6 371.1c-13.8 4.1-24.2 6.6-31.6 8.1-4.1.8-10.3 2-12.2 6.5-.9 2.1-1.1 5.5.9 8.1 1.7 2.2 4.7 3.2 7.6 2.8M505.7 369.5c4.4 4.8 13.6 13.5 27.9 18.7 11.5 4.2 21.6 4.5 27.7 4.2M578 366.3c4.9 1.8 19.2 7.7 28.6 22.9 5.6 9 7.2 17.7 7.8 22.9M417.1 350.4c-.7 1.7-2.1 6.2-.3 10.9 1.5 4.1 5.2 7.8 9.5 9.2 2.7.8 5 .5 7.8 2.6 1.4 1 2.2 2.1 2.8 2.9M482.1 355.9c8.2 3.1 14.9 4.2 19.6 4.6 3.9.3 8.5.4 12.2 3.7 2.2 1.9 3.3 4.1 3.9 5.8M461.6 343.4c-3.5-.2-8.8-.7-15.2-2.1-14-3-19.8-7.3-31.9-10.6-5.6-1.6-14-3.3-24.7-3.5M555.7 484.8c1.5 6.1 3.3 16 2.1 28.1-.5 4.8-4.4 38.1-33.3 58.2-5.3 3.7-14.7 9.1-28.1 12"/><path id="foliage_1_" class="st4" d="M786.9 290.8c-1-.3-2.1-.6-3.1-.7-.4-2.3-1.3-4.1-2.8-5.1-3.5-2.4-7 1.6-18.9 2.5 1.9-3.3 2.4-6.8.9-9.5-2.2-3.9-7.8-5.1-13.9-3.6.3-1.6.2-3.2-.6-4.6-1.5-2.6-4.7-3.8-8.6-3.4-.1-.5-.3-1-.5-1.5 1.1-.4 2.3-.9 3.4-1.6 7-3.9 10.6-10.8 8-15.3-1.3-2.4-4-3.6-7.3-3.8 3.5-4.1 4.8-8.8 2.9-12.3-.3-.6-.8-1.1-1.2-1.6 2.2-3.2 2.8-6.6 1.3-9.3-1.3-2.4-4-3.6-7.3-3.8 3.5-4.1 4.8-8.8 2.9-12.3-2.2-3.9-7.8-5.1-13.9-3.6.3-1.6.2-3.2-.6-4.6-1.5-2.6-4.7-3.8-8.6-3.4-.1-.5-.3-1-.6-1.5-.6-1.1-1.7-2-2.9-2.5-.8-4-3.2-6.9-6.2-7.1-1.2-.1-2.3.3-3.3.9-.9.2-1.8.4-2.7.8-1.3-3.2-3.5-5.4-6.2-5.6-3.4-.2-6.6 2.8-8.2 7.4-.9-.9-2-1.5-3.2-1.6-2.3-.2-4.4 1.5-5.8 4.1l-1.2-.3c-1.3-.1-2.5.4-3.5 1.3-.6-.6-1.4-1-2.2-1.1-1.3-.1-2.6.5-3.6 1.6-2.8-1.6-5.7-1.9-7.7-.5-1.7 1.2-2.5 3.4-2.3 5.9-3.4-2.4-7.1-3-9.6-1.2-2.8 2-3.3 6.4-1.6 10.9-1.3-.1-2.5.1-3.4.8-1.9 1.3-2.5 3.9-1.9 6.9-.3.1-.5.2-.8.4.7-3.3.2-6.2-1.8-7.9-2.6-2.2-7-1.5-11 1.3-.2-1.3-.8-2.4-1.7-3.1-1.8-1.5-4.5-1.4-7.1-.1-.2-.3-.5-.7-.8-.9-1-.8-2.3-1.1-3.7-1-.2-.8-.5-1.6-1.1-2.1-1.3-1.1-3.3-1.2-5.3-.3-1.2-9.7 1.8-19.4.3-19.7-1.7-.4-6.4 10.6-9.1 10.6h-.1c-.7-.4 5.7-7.8 11.3-18.6 5.8.6 10.8-1.9 11.3-5.7.3-2.1-.8-4.1-2.8-5.7 4.1-.9 7.1-3.2 7.5-6.2.5-3.4-2.4-6.8-6.9-8.7 1-.8 1.6-1.9 1.8-3.1.3-2.3-1.2-4.5-3.7-6.1.2-.4.3-.8.4-1.2.2-1.3-.2-2.5-1.1-3.6.6-.6 1.1-1.3 1.2-2.1.4-2-1.2-4.1-3.7-5.4-.4-2.3-.9-4.8-1.4-7.6-.7-3.9-1.4-7-1.9-9.5 1.7-1.4 3.2-3.5 4.2-6 2.3-5.7 1.1-11.6-2.6-13.1-1.9-.8-4.2-.2-6.2 1.3.1-4.2-1.4-7.6-4.2-8.8-3.1-1.2-7 .6-9.9 4.4-.1 0-.3-.1-.4-.1-.6-1-1.4-1.7-2.3-2.1-1-.4-2.1-.4-3.2-.1-2.4-1-5-2.3-7.7-4 0-.3-.1-.7-.2-1-.7-2-2.7-3.2-5.2-3.7 3.2-2.7 4.7-6.1 3.6-9-1.2-3.2-5.3-4.8-10.2-4.4.5-1.2.5-2.4.1-3.5-.8-2.1-3.2-3.4-6.2-3.6 0-.4-.1-.8-.3-1.2-.4-1.2-1.4-2.1-2.7-2.7.3-.8.3-1.6.1-2.4-.8-2.3-3.8-3.4-7.3-2.9-.6-5.5-3.9-9.6-7.6-9.5-2.1.1-3.9 1.5-5.2 3.7-1.6-3.9-4.4-6.4-7.4-6.3-3.4.1-6.2 3.5-7.3 8.3-1-.8-2.1-1.2-3.3-1.2-2.3.1-4.2 1.9-5.4 4.7-.4-.1-.8-.2-1.2-.1-.4 0-.9.1-1.3.3-2.3-.1-5.8-.3-10.2-.9-.1-1.4-.7-2.6-1.8-3.3-.8-.5-1.8-.7-2.9-.5-.3-1.4-1-2.6-2.2-3.3-1.2-.7-2.7-.7-4.2-.2-.4-1.1-1.1-1.9-2-2.5-2-1.1-4.6-.7-7 1-.2-2.5-1.3-4.5-3.1-5.5-2.4-1.4-5.6-.8-8.6 1.3.2-2.9-.8-5.5-2.8-6.6-.6-.4-1.4-.6-2.1-.7.9-3 .4-5.8-1.5-6.9-.8-.5-1.8-.6-2.9-.4-.4-1.4-1.1-2.6-2.3-3.2-1.3-.7-2.7-.6-4.2-.1-.5-1-1.2-1.9-2.1-2.4-2-1.1-4.6-.5-6.9 1.3-.3-2.4-1.4-4.4-3.3-5.4-2.4-1.3-5.6-.6-8.5 1.6.1-2.9-1-5.4-3-6.5-3.5-1.9-8.8 1-11.7 6.4 0 .1-.1.1-.1.2-2.6-.1-5 1.6-6.7 4.5-1.5-2.5-3.5-4.1-5.9-4.3-3.2-.3-6.3 1.9-8.4 5.6-1.3-3.2-3.5-5.4-6.2-5.6-4.6-.4-9 5-9.6 12.1-.2.2-.4.5-.6.8-1.3-.7-2.7-.8-4-.3-1.3.5-2.3 1.7-2.8 3.2-1.1-.3-2.2-.3-3.2.1-2.1.8-3.4 3.2-3.5 6.1-2.1-1.3-4.3-1.8-6.2-1-2.6 1-4.1 3.9-4.3 7.5-2.2-2-4.7-2.8-6.9-2-2 .8-3.3 2.8-3.7 5.5-3.9-4-9.1-5.3-11.9-2.9-1.6 1.4-2.2 3.6-1.8 6.1-3.6-2.1-7.4-2.3-9.7-.4-2.6 2.2-2.7 6.6-.6 11-1.3 0-2.4.3-3.4 1.1-1.7 1.5-2.1 4.1-1.3 7-.4.2-.7.4-1 .6-1 .8-1.5 2-1.6 3.4-.9 0-1.6.3-2.3.8-2.2 1.7-1.9 5.9.8 9.4-1.9 2-2.7 4.3-2 6.4a5.7 5.7 0 0 0 3 3.3c0 .7.1 1.5.2 2.2-2.2 2.3-3.2 4.9-2.4 7.3 1 3.3 5 5.1 9.9 4.9-.5 1.2-.6 2.4-.3 3.5.7 2.2 3 3.6 6 3.9 0 .4.1.8.2 1.2.4 1.2 1.3 2.2 2.5 2.8-.3.8-.4 1.6-.2 2.4.5 1.9 2.6 3.1 5.2 3.3-1.9 1.5-4.7 3.1-9 4.8-.9-1.3-2.1-2.7-3.3-4.1 2.3-4.9 1.9-9.9-1.2-11.8-1.8-1.1-4.1-.9-6.4.3.8-4.1-.1-7.7-2.7-9.3-2.9-1.8-7.1-.5-10.7 2.9-.4-1.2-1.1-2.2-2.1-2.8-2-1.2-4.6-.7-7.1 1-.3-.3-.6-.6-.9-.8-1.1-.7-2.4-.8-3.8-.4-.3-.8-.8-1.5-1.4-1.9-2.4-1.6-6.3.2-8.8 3.9-.3.4-.5.9-.8 1.3-1.6.5-3.2 1.3-4.6 2.4-.9.7-1.6 1.5-2.2 2.2h-.4c-2.3 0-4.3 1.7-5.5 4.4-1.5-2-3.3-3.2-5.4-3.2-2.8 0-5.2 2.2-6.7 5.5-1.3-2.6-3.4-4.3-5.7-4.3-3.1 0-5.7 2.9-6.8 7.1-2.9.9-5.7 2.4-7.1 4.8-2.5 4.3.7 9.2 3.7 15.4-1.7 1.1-2.8 2.6-2.7 4.2.1 1.4 1 2.7 2.4 3.7-2.9.8-5.1 2.8-5.3 5.2-.1.7 0 1.4.3 2-.5.4-1 .9-1.3 1.4-2.3 3.6.1 9.2 5.3 12.5.2.1.3.2.5.3-.7.4-1.2.9-1.6 1.5-.6.9-.8 1.9-.7 2.9-2.5-3.1-7.5-3.7-12.4-1.7-.5-2.2-1.7-4-3.6-4.9-2-.9-4.2-.7-6.4.4-.4-.2-.9-.3-1.3-.5.4-4.7-1.2-8.6-4.1-9.6-1.4-.5-3-.2-4.5.7-.7-1.6-1.9-2.8-3.5-3.3-2.8-1-6 .5-8 3.4-1-2.3-2.6-4.1-4.7-4.8-3.9-1.3-8.4 1.1-11.4 5.5-1.7-1.5-3.7-2.3-5.7-2-2.6.4-4.7 2.5-5.8 5.5-2.3-4.9-6.2-7.8-9.5-6.8-3.9 1.2-5.6 7.4-3.6 13.9.3.9.6 1.7.9 2.5-.1 0-.1.1-.2.1-1.7-.7-3.5-.8-5.2-.2-3.4 1.2-5.3 5-5 9.2-2.7-1.5-5.5-1.9-8.1-1-4.7 1.7-7.1 7.3-6.7 13.8-2.8-.2-5.3.6-7 2.4-2.2 2.3-2.6 5.9-1.3 9.6-5.8-2.9-11.7-2.8-14.1.6-1.4 1.9-1.4 4.6-.2 7.4-3.2-.1-6.2 2.6-7.9 6.5-1.7-1-3.5-1.3-5.1-.7-2.1.8-3.4 2.9-3.8 5.5-2.7-3.6-6.4-5.4-9-4-1.6.9-2.5 2.9-2.5 5.3-1.4-.3-2.7-.1-3.9.6-2.1 1.4-2.8 4.2-1.9 7-2-.6-4-.4-5.6.6-2.9 1.9-3.7 6-2.4 10.4-1.9.3-3.5 1.2-4.3 2.7-1.1 1.9-.8 4.4.6 6.7-4.4-1-8.4 0-9.5 2.6-1 2.5.8 5.8 4.3 8.2-.8 1.6-1.6 3.1-2.2 4.5-4.3 3-10.2 8.2-15 14.4-.2.2-.3.4-.5.6-1.3-1-2.7-1.4-4-1-2.8.8-4 5-3 9.6-2.1.3-3.9 1.4-4.6 3.1-.3.6-.4 1.3-.4 1.9-.6.2-1.1.5-1.6.9-3.1 2.5-2.7 8.1.8 12.7-.2.4-.3.7-.4 1.1-.3.1-.6.3-.9.5-1.7 1.4-2.1 3.9-1.1 6.3-.5.6-.8 1.4-.8 2.1-.2 2.3 1.5 4.3 3.9 5.3-1.5 1.1-2.5 2.6-2.7 4.3-.3 3.1 2.3 6 6.1 7.4-.8 1.5-1.1 3.1-.5 4.6.8 1.9 2.7 3 5.1 3.3-3.2 2.6-4.7 5.9-3.4 8.2 1.3 2.2 4.7 2.7 8.3 1.4 1.4 2.2 4.3 3.4 7.4 3.1-1.3 2.3-1.6 4.8-.8 7 1.2 3.3 4.7 5.3 9 5.6-.5.4-.9 1-1.1 1.6-.3.9-.2 1.9.3 2.9-1.3.7-2.3 1.7-2.6 3-.4 1.4 0 2.8.9 4.1-.9.7-1.6 1.6-1.9 2.6-.6 2.2.6 4.6 2.8 6.5-2.3.9-4 2.4-4.5 4.4-.7 2.7.7 5.6 3.5 7.9-2.9.6-5.1 2.1-5.7 4.4-.7 2.6.9 5.6 3.9 7.7-.4.6-.8 1.2-1.2 1.7-19.2 11.3 3.9 14.9 3.9 14.9-1.7 4.6-16.6 6-14.4 12.6 2 5.7.5 13 2.1 17.3 1.2 3.1 2.1 5.9 2.9 8.5 0 0 0 .1-.1.1-.2.2-.4.5-.6.7-1.1 1.8-1 4.1.2 6.4-4.1-.9-7.7 0-9.4 2.6-1.8 2.9-.6 7.1 2.7 10.7-1.2.4-2.2 1.1-2.9 2.1-1.2 1.9-.8 4.6.9 7.1-.3.3-.6.6-.8.9-.7 1.1-.8 2.4-.5 3.7-.6.2-1.1.5-1.5.9-3.4 1.3-7 2.2-10 2.6-1.5 2.8-3.1 6-4.5 9.8-.8.4-1.5 1-2 1.8-.9 1.5-1 3.3-.3 5.2-.1.4-.2.7-.3 1.1-3.8-.6-7 .3-8.6 2.8-1.8 2.9-.6 7.1 2.7 10.7-1.2.4-2.2 1.1-2.9 2.1-1.2 1.9-.8 4.6.9 7.1-.3.3-.6.6-.8.9-.7 1.1-.8 2.4-.5 3.7-.8.3-1.5.7-1.9 1.4-1.6 2.4.1 6.3 3.8 8.9.9.6 1.9 1.1 2.8 1.4-1.7 2.8-2.1 5.8-.7 8.2 1.2 2 3.5 3.2 6.1 3.4C10 576 9.2 580 11 583c2 3.3 6.6 4.5 11.4 3.3-.2 1.4 0 2.7.7 3.9 1.3 2.2 4 3.3 7.1 3.1.1.4.3.9.5 1.3.7 1.2 1.9 2.1 3.4 2.5-.1.9.1 1.8.5 2.7 1.6 2.9 6.1 3.4 10.1 1.3 2-1.1 3.6-2.7 4.4-4.3 2.6 3.8 6.5 5.8 9.9 4.5 2.2-.8 3.8-2.8 4.4-5.4 2.9 3.2 6.7 4.7 9.9 3.5 3.6-1.3 5.6-5.6 5.4-10.6 1.3.4 2.7.5 4 0 2.4-.9 4-3.4 4.4-6.5.5 0 .9-.1 1.4-.3 1.4-.5 2.4-1.5 3.1-2.8.9.3 1.8.3 2.7 0 3.1-1 4.5-5.3 3.1-9.7-.2-.6-.4-1.2-.7-1.7.6-.6 1.3-1.2 1.9-1.9 5.6-6.4 4.4-13.8 8.6-14.7 1.6-.4 2.9.5 4.2 1.7-2.3 2.6-2.9 7.2-1.3 11.7 2.1 5.9 7.3 9.5 11.6 7.9 2.2-.8 3.8-2.8 4.4-5.4 2.9 3.2 6.7 4.7 9.9 3.5 3.6-1.3 5.6-5.6 5.4-10.6 1.3.4 2.7.5 4 0 2.4-.9 4-3.4 4.4-6.5.5 0 .9-.1 1.4-.3 1.4-.5 2.4-1.5 3.1-2.8.9.3 1.8.3 2.7 0 1.8-.6 3-2.3 3.5-4.5 7 3.2 12.8 10.3 13.3 17.9 0 .9 0 1.7-.1 2.6-3.9-1.9-8-1.8-10 .6-1.3 1.6-1.5 3.9-.7 6.3-3.9-1.4-7.7-1-9.6 1.4-2.2 2.6-1.5 7 1.3 11-1.3.2-2.4.8-3.1 1.7-1.5 1.8-1.4 4.5-.1 7.1-.3.2-.7.5-.9.8-.7.8-1 1.9-1 3-.1.1-.3.2-.4.3-2-.8-4-.9-5.8-.1-2.3 1.1-3.7 3.6-4.1 6.7-3.7-3.6-8-5.1-11.4-3.5-3.7 1.7-5.3 6.7-4.4 12.4-.4.1-.7.2-1 .3-1.1-.1-2.2 0-3.2.5-.7.3-1.3.8-1.8 1.4-.7.5-1.3 1.1-1.9 1.9-1.1 1.7-1.4 3.3-1.4 5 0 0-.1 0-.1.1-1.4.7-2.4 1.9-3 3.6-1-.3-2-.2-3 .2-3.3 1.4-4.1 6.6-2 11.7.3.6.6 1.3.9 1.8-2.4.8-5.3 1.3-8.3 1.8-7.1 1.2-9.3 0-12 1-1.9-.4-4-.4-6.1-.2-7.5.9-13.2 5.7-12.6 10.6.3 2.6 2.3 4.7 5.1 5.9-4.6 2.4-7.4 6-6.9 9.8.5 4.2 5 7.3 10.9 8.1-.9 1.3-1.3 2.8-1.1 4.2.3 2.8 2.8 5 6.3 6.1-.1.5-.1 1 0 1.5.2 1.6 1.1 2.9 2.5 3.9-.6.9-.8 1.9-.8 2.9.3 3.5 5 6 10.5 5.5 2.3-.2 4.4-.9 6-1.9.7.7 1.5 1.3 2.4 1.6 2.4.9 5.2.2 7.6-1.8 0 5.1 1.9 9.3 5.4 10.7 3.9 1.5 8.8-1 12.3-5.9.8 1.4 1.8 2.4 3.2 2.9.6.2 1.2.3 1.8.3.3.5.7.9 1.1 1.4 3.3 3.4 5.8 1.3 12.1 4.8 4.9 2.7 5.8 5.2 8.1 7.8-.2 1.1-.4 2.2-.4 3.5 0 6.2 3.3 11.2 7.3 11.2 2.1 0 4-1.4 5.3-3.5 1.4 3.9 4.1 6.6 7.2 6.6 3.4 0 6.4-3.3 7.6-8 1 .8 2.1 1.3 3.3 1.3 2.3 0 4.3-1.8 5.5-4.5.4.1.8.2 1.2.2 1.2 0 2.3-.5 3.3-1.4.1 0 .2-.1.2-.1.6.5 1.4.8 2.2.8 2.6.1 4.9-2.9 5.4-6.8 2.5-3.6 3-7.4 5.8-10.2.9 4.6 3.7 7.9 7 7.9 2.1 0 4-1.4 5.3-3.5 1.4 3.9 4.1 6.6 7.2 6.6 3.4 0 6.4-3.3 7.6-8 1 .8 2.1 1.3 3.3 1.3h.3c.2.8.4 1.6.7 2.5 2.2 5.8 7 9.3 10.7 7.9 2-.7 3.2-2.7 3.7-5.2 2.7 3.2 6.2 4.7 9 3.6 3.2-1.2 4.8-5.3 4.3-10.2 1.2.4 2.4.5 3.5.1 2.1-.8 3.4-3.2 3.6-6.2.4 0 .8-.1 1.2-.3 1.2-.4 2.1-1.4 2.6-2.7.8.3 1.6.3 2.4.1 2.7-.9 3.8-5.1 2.4-9.3-.9-2.9-2.8-5-4.7-5.9 1.3-3.3 3-7.1 5.8-11.4 2.3 1.2 4.6 1.4 6.4.3 1.8-1.1 2.7-3.2 2.7-5.8 3.3 2.6 6.9 3.4 9.5 1.8 1.5-.9 2.5-2.6 2.8-4.6.2 0 .3.1.5.1 2 .4 4.2-.5 5.9-2.4.6 4.1 2.7 7.2 5.7 7.8 3.4.7 6.9-2 9.1-6.3.8 1 1.8 1.7 3 1.9 2.2.5 4.6-.9 6.3-3.3.4.2.7.3 1.2.4 1.2.3 2.5-.1 3.7-.9.5.7 1.2 1.1 2 1.3 2.4.6 5-1.5 6.4-4.9.5-.2 1-.3 1.5-.6 9.8-4.2 13.5-12.7 19.7-13.9 9.3-1.9 13.1-6.6 19.7-6.2 9.1.5 21-4.8 25.4-2.6 7.5-1.1 15.1-2.1 22.6-3.2 9.9-12.6 19.2-20.6 26.1-25.6 6-4.4 12.2-8 20.3-16.1 5.1-5.1 4-4.9 11-12.2 6.1-6.2 10.5-10 15.6-17.3 1.5-2.1 2.6-3.8 3.2-4.9-2-.6-4.8-1.6-8.1-3.2-4.6-2.3-10-5.1-13.6-10.9-1.2-1.9-3.3-6.1-3.3-12.5-.7-1.3-1.9-3-3.7-4.8-1-1-6.7-6.2-13.3-5.7-1.9.1-6.1 1-12.5 8.9-8 10-7 15.8-12.2 25.3-7.2 13.2-19 19.8-25.4 23.4-5.1 2.8-15.2 7.8-28.9 9.2-6.4.7-14-.4-29.3-2.6-6.5-.9-11.1-1.8-16-5-4.6-3-7.5-6.7-9.2-9.3-4.2 1.7-6.9 1.2-8.3.7-3.3-1.2-5.4-4.2-8.4-8.4-2.8-4-3.2-5.6-4.9-6-2.2-.5-4 1.6-7.1 4.4-7.2 6.6-11.2 10.2-15.7 11-5.1.9-5.8-2.7-13-3.6-7.4-1-17.2 1.4-23.3 8.8-5.3 6.4-5.6 13.9-5.6 16.8-1-2.1-5.4-11.5-1.8-22.5 2.7-8.3 9.8-16.9 18.7-18.4 5.5-.9 7.2 1.6 15.8.8 5.3-.5 9-1.8 13.5-3.4 28.1-10.1 30-10.7 32.9-10.7 5.6-.1 13.6 1.4 23.5 9.3 6.3-3.1 11.3-3.4 14.6-3.2 7.7.5 11.8 4.5 17 2.1 1.2-.6 2.8-2.2 5.9-5.6 4.4-4.7 5.3-6.6 7.6-9 4.5-4.6 9.2-6 12.3-7.5 15.9-7.2 12.4-23.8 30.3-34.1 9.8-5.6 20.9-6.5 22.6-6.7 4-.3 7.4-.1 9.8.2 2.7-1.8 5.4-3.7 8-5.5-5.9-4.8-14.8-10.2-24.9-9.1-3.4.4-5.8 1.3-7.4 2-7.7 3.1-18.5 5.9-40.1 11.6-19.1 5.1-28.7 7.6-40.1 6-3.8-.5-12.5-1.8-22.2-7-7.6-4.1-6.5-5.7-13.4-9.2-12.9-6.5-25.6-5.4-29.9-5-5.2.5-9.4 1.7-12.2 2.6-8.8-4.1-14.3-3.5-17.7-2-3.8 1.6-4.8 4.2-10.4 9.3 0 0-5.6 5.2-13.4 10-10.8 6.7-31.8 12.5-43.6 3-4.8-3.9-5.2-8.6-16.1-20-8.4-8.7-12.6-10.6-15-11.4-8-2.7-15.4-.9-19.2.3 3.1-1.7 8.2-4.1 14.8-4.6 14.1-1.2 24.5 6.5 29.2 10 7.8 5.8 12.6 12.7 15.5 18 2.5 1.1 8.8 3.7 15.9 1.5 6.2-1.9 9.8-6.5 12.7-10.3 4.3-5.6 3.8-8 7.1-12.8 6.1-8.8 15.5-12.1 16.9-12.6 10.2-3.4 13.6 1.6 32.4-.2 6.7-.6 10.2-1 13.9-3.1 8.5-4.9 7.2-11.6 14.5-15.4 6.6-3.5 9.2 1.3 23.4-.1 10.1-1 11.7-3.7 20.8-4 7.5-.2 13.6 1.4 17.4 2.7 6.6.8 9.7-.8 11.2-2.4 2.5-2.7 1.4-5.7 4-9.9 2.3-3.7 5.8-5.4 8.6-6.7 6.9-3.2 9.1-.8 19.5-3.1 4.9-1.1 10.2-2.3 15.3-6.4 3-2.5 5-5.2 6.1-7-1.2-.4-2.9-1-5-1.1-4.1-.3-7.1 1.1-9.2 1.8-2.1.8-8.8 3.3-14.3 2.8-10.9-.9-17.3-13.6-17.9-14.9-4.7-9.7-2.3-19.1-1.2-23.2 1.6-6.1 4.4-10.7 6.4-13.4-3.5-11.8-8.9-16.5-13.1-18.6-6.6-3.3-10.5-.2-23-2.7-4.7-.9-12-2.5-19.4-7.4-2.9-1.9-12.4-8.3-17.3-20.9-4.4-11.4-2.5-21.3-1.3-27.4 2.3-11.7 7.5-20.2 11.2-25.1-1.1 4.9-2.4 11.8-2.7 20.2-.5 14-.9 23.8 5.1 32.5 7.4 10.9 20.3 14.2 28.6 16.3 6.8 1.7 12.6 2.1 16.7 2.1 5.1-1.5 10.9-2.9 17.3-3.9 12.6-2 16.1-.9 17.4-.4.6.2 10.2 3.8 12.3 11.7 1 3.8-.6 5 .7 8.6 2.1 5.7 8.4 8.3 9.8 8.9 8.6 3.6 13.1-1.1 20.8 1.6 3.3 1.1 7.7 3.8 11.9 11.1 1.2-.4 2.8-.9 4.7-1.3 8.1-1.7 14.6-.8 16-.6 8.7 1.4 14.8 5.5 17.3 7.3 9.2 6.4 8.4 11 16.9 15 2.7 1.3 7.9 3.6 14.3 2.4 5.5-1.1 9.2-4.2 10.8-5.9-5.6-3.7-18.9-13.6-24.5-31.2-1.8-5.7-5.6-17.6-.1-28.6 4-8 11-12.2 11-12.2 2.9-1.7 5.7-2.6 7.6-3 1.6-2.6 4.3-6.5 8.5-10.5 6.6-6.3 11-7.1 14.9-12.3 2.2-2.9 4.6-7.7 4.7-15.6 5 7.3 5.3 12.8 4.8 16.2-.6 4.4-3.8 8.6-10.1 17-7.4 9.8-9.7 11.1-10.3 15.6-.6 5.2 2.2 5.3 2.3 13 .2 8.9-3.4 15.2-4.2 16.6-1.5 2.6-3.2 4.5-4.5 5.8 3.1 2.7 7.9 6.5 14.5 10.1 9.3 5 12.4 4.3 18.3 9.2 2.6 2.2 9.5 8 10.4 16.5.5 4.2-.9 5.8.2 9.8 1.4 5.2 5.5 8.7 8.7 10.8.9-4.5 2.5-7.7 3.7-9.5 5.6-8.9 14.6-11.9 17.6-12.7 3.4-.9 6.4-1.1 8.2-1 4.5-5.4 5.9-10 6.4-13.4 1-7.3-2.3-12.5 1.2-18.6 1-1.8 1.2-1.1 3.6-4.6 3.6-5.1 6.1-8.8 5.1-12.2-.8-2.9-3.4-2.9-4.3-6.1-.5-1.8-.2-3.9 1.2-6.8 8.4-16.9 25.7-23.1 25.7-23.1 5.7-2 8.4-1.7 15.1-5 4.6-2.3 8.1-4.7 10.4-6.5-.9 2.4-2.6 5.9-5.5 9.4-6.2 7.6-14.3 10.5-15.7 11-6.9 2.4-9 .6-12.8 3.7-4.4 3.5-5.4 9-5.7 10.5-1 5.1.3 9.3 1 11 1.5 1.2 3.6 3 5.6 5.6 4.9 6.5 5.6 13.3 5.9 16.7.7 7.5-1.1 13.6-2.4 17.1-1 .5-2.5 1.5-3.4 3.2-2 3.6.3 6.9 2.2 14.7 2.3 9.4.2 9.7 2.7 16.4 2 5.4 1.8 7.1 1.2 10.3-.7 4.1-2.4 6.5-4.8 8.3-2.4 1.8-4.6 2.9-6.2 3.6.3 1.1.8 2.7 1.3 4.7 1.6 7.2.7 9 2.4 10.9 1.3 1.4 3.2 1.9 5.1 2.1.6 5.2 3.6 9.1 7.1 9.1 2.1 0 4-1.4 5.3-3.5 1.4 3.9 4.1 6.6 7.2 6.6 3.4 0 6.4-3.3 7.6-8 .6.5 1.3.9 2 1.1.4.2.8.5 1.2.7.1.4.2.8.3 1.1 1.8 5.9 6.3 9.8 10.2 8.6 2-.6 3.4-2.4 4.1-4.9 2.5 3.3 5.8 5.1 8.7 4.2 3.3-1 5.1-5 5-9.9 1.2.5 2.4.7 3.5.3 2.2-.7 3.6-2.9 4-5.9.4 0 .8-.1 1.2-.2 1.2-.4 2.2-1.3 2.8-2.5.8.3 1.6.4 2.4.2 2.8-.7 4.1-4.8 3-9.1-.3-1.3-.8-2.4-1.4-3.4.1-.4.1-.8.1-1.2.2-3.2-1.1-4.9-4.3-9.4 4.2-2.2 6.7-6 5.7-9.1-.6-2-2.5-3.4-5-4 3.3-2.6 5-5.9 4.1-8.8-1-3.3-5.1-5.1-9.9-4.9.5-1.2.6-2.4.3-3.5-.7-2.2-3-3.6-6-3.9 0-.4-.1-.8-.2-1.2-.4-1.2-1.3-2.2-2.5-2.8.3-.8.4-1.6.2-2.4-.7-2.5-4-3.8-7.8-3.2 0 0 0-.1.1-.1 1.6-3.2 4.6-3.6 9.4-4.6.2 1 .5 2 .9 3 1.8 4.1 5.5 6.4 8.1 5.3.9-.4 1.6-1.2 2-2.2 1.4.5 2.8.6 4 0 1.3-.6 2.1-1.9 2.5-3.4 1.1.2 2.2.1 3.2-.4 2-1 3-3.5 2.9-6.4 2.2 1.1 4.4 1.4 6.3.4 2.5-1.2 3.7-4.3 3.6-7.9 2.4 1.8 5 2.3 7.1 1.3 3.6-1.8 4.3-7.7 1.5-13.2-.5-1.1-1.1-2-1.8-2.9 1.9-2.7 2.8-4.5 2.5-4.8-.2-.2-1.3.7-2.8 2 .2-.8.1-1.7-.3-2.5 1.3-.6 2.3-1.6 2.8-2.9.4-1.3.2-2.8-.7-4.2.9-.6 1.6-1.5 2-2.5.7-2.2-.3-4.6-2.5-6.6 2.3-.8 4.1-2.2 4.7-4.2.9-2.6-.4-5.6-3.1-8.1 2.9-.4 5.2-1.9 5.9-4.1 1.4-3.9-2.3-8.6-8.2-10.5zM43.4 339.4s-.1-.1 0 0c.2-.1.4-.1.7-.1-.2 0-.5 0-.7.1z"/><g class="st9"><path class="st10" d="M73.4 798.5c0 5.4.6 5.4 6.6 5.4h13.6c8.2 0 14.6-.4 17-1.2 2.2-.8 3.8-1.8 5-7l1.8-8c1-1.2 4.4-1.2 5.2 0 0 4.8-.8 12.8-.8 20.2 0 7.2.8 14.8.8 19.4-.8 1.2-3.8 1.2-5.2 0l-2-7.8c-1-3.6-2.6-6.4-6.4-7.6-2.8-.8-7.8-1-15.4-1H80c-6 0-6.6.2-6.6 5.4v27.8c0 21 .4 24 12.2 25l6.8.6c1.2.8.8 4.4-.4 5-11.8-.4-18.6-.6-26.6-.6-8.8 0-15.6.2-25 .6-1.2-.6-1.6-3.8-.4-5l5-.6c11.6-1.4 12-4 12-25v-72c0-21-.4-23.8-12-25.2l-3.2-.4c-1.2-.8-.8-4.4.4-5 8.4.4 15.2.6 23.2.6h36.8c12.8 0 24.4 0 27-.6 0 9.2.2 18.8.6 26.4-.6 1.2-3.4 1.8-4.8.6-1.6-9-4-16.4-14-19-4.4-1.2-11-1.2-19.4-1.2H79.4c-6 0-6 .4-6 8v42.2zM176.8 832.7c3-1 3.4-2.8 3.4-5.8l.2-9.2c.2-7.4-2.2-17.4-14.6-17.4-5.6 0-12.4 2.8-12.8 9-.2 3.2-.4 5.6-2 6.8-3 2.4-8.4 3.8-11.4 3.8-1.8 0-2.8-1-2.8-2.8 0-10.4 22.6-24.6 37.2-24.6 14.4 0 21.4 8.4 20.8 23.4l-1.2 34.8c-.4 9.2 1.4 17.4 9.2 17.4 2 0 3.8-.6 5-1.2 1-.6 2-1.4 2.6-1.4.8 0 1.4 1.2 1.4 2.6 0 1-7 8.8-16.8 8.8-4.8 0-9.6-1.8-13-6.2-.8-1.2-2-2.8-3.2-2.8-1.4 0-3.8 1.8-7.8 4-4.4 2.4-8.8 5-14.4 5-5.8 0-10.6-1.6-14-4.6-3.8-3.4-6.2-8.4-6.2-14 0-7.8 3.8-12.4 16.6-17l23.8-8.6zm-12.4 35.2c4 0 10.2-3 12.2-5 2.4-2.4 2.4-5.2 2.6-9.4l.4-11.8c0-2.2-.8-2.6-2-2.6s-4.6.8-8.2 2c-11.8 4-17.6 7-17.6 14.8 0 3.4 2.4 12 12.6 12zM229.8 816.7c0-7.8 0-8.8-5.4-12.4l-1.8-1.2c-.8-.8-.8-3 .2-3.6 4.6-1.6 16-6.8 20.6-9.8 1 0 1.8.4 2 1.2-.4 7-.8 16.6-.8 24.8v36c0 14.4.4 16.4 7.6 17.4l4.2.6c1.4 1 1 4.4-.4 5-6-.4-11.8-.6-18.8-.6-7.2 0-13.2.2-18.8.6-1.4-.6-1.8-4-.4-5l4.2-.6c7.4-1 7.6-3 7.6-17.4v-35zm16.6-57c0 7.2-5 10.4-10.6 10.4-6.2 0-10.2-4.6-10.2-10 0-6.6 4.8-10.8 10.8-10.8s10 4.8 10 10.4zM281.2 816.7c0-7.8 0-8.8-5.4-12.4l-1.8-1.2c-.8-.8-.8-3 .2-3.6 4.6-1.6 15.2-6.8 20.2-9.8 1 .2 1.6.6 1.6 1.4v11.6c0 1 .2 1.6.6 1.8 7-5.8 14.6-12 22-12 5 0 9 3.2 9 8 0 6.6-5.4 9.2-8.6 9.2-2 0-3-.6-4.4-1.4-3-2-6-3.2-8.8-3.2-3.2 0-5.6 1.8-7.2 4-2 2.8-2.6 8.6-2.6 15.4v27.2c0 14.4.4 16.8 8 17.4l7.2.6c1.4 1 1 4.4-.4 5-9.4-.4-15.2-.6-22.2-.6-7.2 0-13.2.2-18.4.6-1.4-.6-1.8-4-.4-5l3.8-.6c7.4-1.2 7.6-3 7.6-17.4v-35zM387.2 809.5c0-40 30-70.6 71.2-70.6 46.2 0 69.4 33.4 69.4 68.6 0 40.4-30.8 69.8-69.4 69.8-44.4 0-71.2-31.8-71.2-67.8zm120.6 4.2c0-33-14.6-68.6-52.8-68.6-20.8 0-47.8 14.2-47.8 58 0 29.6 14.4 68 53.8 68 24 0 46.8-18 46.8-57.4zM583.2 832.7c3-1 3.4-2.8 3.4-5.8l.2-9.2c.2-7.4-2.2-17.4-14.6-17.4-5.6 0-12.4 2.8-12.8 9-.2 3.2-.4 5.6-2 6.8-3 2.4-8.4 3.8-11.4 3.8-1.8 0-2.8-1-2.8-2.8 0-10.4 22.6-24.6 37.2-24.6 14.4 0 21.4 8.4 20.8 23.4l-1.2 34.8c-.4 9.2 1.4 17.4 9.2 17.4 2 0 3.8-.6 5-1.2 1-.6 2-1.4 2.6-1.4.8 0 1.4 1.2 1.4 2.6 0 1-7 8.8-16.8 8.8-4.8 0-9.6-1.8-13-6.2-.8-1.2-2-2.8-3.2-2.8-1.4 0-3.8 1.8-7.8 4-4.4 2.4-8.8 5-14.4 5-5.8 0-10.6-1.6-14-4.6-3.8-3.4-6.2-8.4-6.2-14 0-7.8 3.8-12.4 16.6-17l23.8-8.6zm-12.4 35.2c4 0 10.2-3 12.2-5 2.4-2.4 2.4-5.2 2.6-9.4l.4-11.8c0-2.2-.8-2.6-2-2.6s-4.6.8-8.2 2c-11.8 4-17.6 7-17.6 14.8 0 3.4 2.4 12 12.6 12zM634.2 761.3c0-11.8-.2-13-6.2-16.6l-2-1.2c-1-.6-1-3.4 0-4 5-1.6 14.4-4.6 21.6-8.4.8 0 1.6.4 2 1.2-.2 6-.6 16-.6 24.8v68.6c0 2.6.2 3 3.6 3 4.4 0 8.2-2.2 13.6-7.8l8.2-8.8c5.6-6 7-8.2 7-9.2s-1-1.6-4.4-2l-4.8-.6c-1.8-.6-1.8-4.4 0-5h4.6c8.8 0 20.6-.4 31.8-1.6 1.4.6 1.6 4 .4 5l-6.4 1.2c-4 .8-7.4 2.8-12.6 7-7.8 6.2-14.6 13.4-18.2 16.8-2.4 2.2-2.6 3.2-1.4 4.8 3.4 4.6 6.6 8.4 13.4 16 7.8 8.8 14.8 16.6 18.8 20.4 2.8 2.6 6.8 3.8 10.4 4.4l2.8.4c1.4 1 1.2 4.4-.4 5-5.8-.4-12.6-.6-19-.6-8 0-15 .2-20.8.6-1.6-.8-1.8-4.2-.4-5l3.6-.6c3-.4 5-.8 5-2s-.8-2.6-3.4-5.6L659 836.7c-1.8-2-4-2.8-6.2-2.8-3.6 0-3.8.6-3.8 6.8v11c0 14.4.4 16.4 7.6 17.4l4.8.6c1.4 1 1 4.4-.4 5-6.6-.4-12.4-.6-19.4-.6-7.2 0-13.2.2-19.2.6-1.4-.6-1.8-4-.2-5l4.4-.6c7.4-1 7.6-3 7.6-17.4v-90.4zM767.8 796.1c1.8 4.4 3.2 10.8 3.2 16.2-.8 1.4-3.8 1.8-4.8.6-3.4-8.8-9.4-14.6-17.6-14.6-7.8 0-12.8 5-12.8 12.2 0 8.2 8.4 12.6 15.4 16.6 10.6 6 20.4 12.8 20.4 27 0 15.2-14 22.8-28.8 22.8-9.4 0-16.4-2-21.4-6-1.6-3.8-2.8-13.6-2.4-20.2 1-1.2 3.6-1.4 4.6-.2 3.4 11 9.8 20.6 21.2 20.6 7.2 0 13.4-4.2 13.4-12.8 0-9.2-8-14.2-15.4-18.4-11.6-6.6-19.8-13.6-19.8-24.6 0-14.6 12-22.8 27.2-22.8 8.4 0 15.8 2 17.6 3.6zM174 920.9c14.6-11.4 33.2-17 54-17 10.8 0 26 2.2 35.4 4.8 2.4.6 3.8 1 5.6.8.2 4.6 1.2 17.2 2.8 29.4-1 1.4-4 1.6-5.4.4-3-13.6-12-29.2-41-29.2-30.6 0-56.6 19.4-56.6 60.8 0 42 26.6 65.2 59.4 65.2 25.8 0 37.2-16.8 41.8-28.6 1.4-1 4.4-.6 5.2.8-1.4 10.4-6.6 23.6-9.6 27.4-2.4.4-4.8 1.2-7 2-4.4 1.6-18.8 4.6-31.6 4.6-18 0-35.2-3.6-49.8-13.4-16-11-28.4-29.2-28.4-55 0-22.2 10-41.2 25.2-53zM305.2 987.9c-5.2 0-5.4.4-5.4 5.4 0 20.2 11.8 37.4 33.2 37.4 6.6 0 12.2-2 18.4-9.8 2-.6 3.4.6 3.6 2.4-6.6 13.6-21 18.6-31.4 18.6-13 0-23.2-5.6-29-13.2-6-7.8-8.4-17.2-8.4-26 0-24.6 16.2-45.2 40.2-45.2 17.2 0 28.4 11.8 28.4 23.8 0 2.8-.4 4.4-.8 5.2-.6 1.2-3.4 1.4-11.8 1.4h-37zm12.4-6c14.8 0 19.2-.8 20.8-2 .6-.4 1.2-1.2 1.2-3.8 0-5.6-3.8-12.6-15.4-12.6-11.8 0-22 10.8-22.2 17.4 0 .4 0 1 1.4 1h14.2zM390.8 1016.7c0 14.4.4 16.4 7.6 17.4l4.8.6c1.4 1 1 4.4-.4 5-6.6-.4-12.4-.6-19.4-.6-7.2 0-13.2.2-19.2.6-1.4-.6-1.8-4-.4-5l4.6-.6c7.4-1 7.6-3 7.6-17.4v-90.4c0-11.8-.2-13-6.2-16.6l-2-1.2c-1-.6-1-3.4 0-4 5-1.6 14.4-4.6 21.6-8.4.8 0 1.6.4 2 1.2-.2 6-.6 16-.6 24.8v94.6zM440.2 1016.7c0 14.4.4 16.4 7.6 17.4l4.8.6c1.4 1 1 4.4-.4 5-6.6-.4-12.4-.6-19.4-.6-7.2 0-13.2.2-19.2.6-1.4-.6-1.8-4-.4-5l4.6-.6c7.4-1 7.6-3 7.6-17.4v-90.4c0-11.8-.2-13-6.2-16.6l-2-1.2c-1-.6-1-3.4 0-4 5-1.6 14.4-4.6 21.6-8.4.8 0 1.6.4 2 1.2-.2 6-.6 16-.6 24.8v94.6zM504.6 997.7c3-1 3.4-2.8 3.4-5.8l.2-9.2c.2-7.4-2.2-17.4-14.6-17.4-5.6 0-12.4 2.8-12.8 9-.2 3.2-.4 5.6-2 6.8-3 2.4-8.4 3.8-11.4 3.8-1.8 0-2.8-1-2.8-2.8 0-10.4 22.6-24.6 37.2-24.6 14.4 0 21.4 8.4 20.8 23.4l-1.2 34.8c-.4 9.2 1.4 17.4 9.2 17.4 2 0 3.8-.6 5-1.2 1-.6 2-1.4 2.6-1.4.8 0 1.4 1.2 1.4 2.6 0 1-7 8.8-16.8 8.8-4.8 0-9.6-1.8-13-6.2-.8-1.2-2-2.8-3.2-2.8-1.4 0-3.8 1.8-7.8 4-4.4 2.4-8.8 5-14.4 5-5.8 0-10.6-1.6-14-4.6-3.8-3.4-6.2-8.4-6.2-14 0-7.8 3.8-12.4 16.6-17l23.8-8.6zm-12.4 35.2c4 0 10.2-3 12.2-5 2.4-2.4 2.4-5.2 2.6-9.4l.4-11.8c0-2.2-.8-2.6-2-2.6s-4.6.8-8.2 2c-11.8 4-17.6 7-17.6 14.8 0 3.4 2.4 12 12.6 12zM557.6 981.7c0-7.8 0-8.8-5.4-12.4l-1.8-1.2c-.8-.8-.8-3 .2-3.6 4.6-1.6 15.2-6.8 20.2-9.8 1 .2 1.6.6 1.6 1.4v11.6c0 1 .2 1.6.6 1.8 7-5.8 14.6-12 22-12 5 0 9 3.2 9 8 0 6.6-5.4 9.2-8.6 9.2-2 0-3-.6-4.4-1.4-3-2-6-3.2-8.8-3.2-3.2 0-5.6 1.8-7.2 4-2 2.8-2.6 8.6-2.6 15.4v27.2c0 14.4.4 16.8 8 17.4l7.2.6c1.4 1 1 4.4-.4 5-9.4-.4-15.2-.6-22.2-.6-7.2 0-13.2.2-18.4.6-1.4-.6-1.8-4-.4-5l3.8-.6c7.4-1.2 7.6-3 7.6-17.4v-35zM659.2 961.1c1.8 4.4 3.2 10.8 3.2 16.2-.8 1.4-3.8 1.8-4.8.6-3.4-8.8-9.4-14.6-17.6-14.6-7.8 0-12.8 5-12.8 12.2 0 8.2 8.4 12.6 15.4 16.6 10.6 6 20.4 12.8 20.4 27 0 15.2-14 22.8-28.8 22.8-9.4 0-16.4-2-21.4-6-1.6-3.8-2.8-13.6-2.4-20.2 1-1.2 3.6-1.4 4.6-.2 3.4 11 9.8 20.6 21.2 20.6 7.2 0 13.4-4.2 13.4-12.8 0-9.2-8-14.2-15.4-18.4-11.6-6.6-19.8-13.6-19.8-24.6 0-14.6 12-22.8 27.2-22.8 8.4 0 15.8 2 17.6 3.6z"/></g></g><iframe xmlns="http://www.w3.org/1999/xhtml" class="cleanslate hidden" src="moz-extension://ac658d76-599f-804e-8e8e-ff20e55f44dd/static/commandline.html" id="cmdline_iframe" style="height: 0px !important;"></iframe></svg>
